<?xml version="1.0"?>
<svg xmlns="http://www.w3.org/2000/svg" xmlns:xlink="http://www.w3.org/1999/xlink" version="1.1" id="Capa_1" x="0px" y="0px" viewBox="0 0 512 512" style="enable-background:new 0 0 512 512;" xml:space="preserve" width="512px" height="512px"><g><style xmlns="" type="text/css" id="night-mode-pro-style" class="active-path" style="fill:#FFFFFF" data-old_color="#FBFDFD"/><link xmlns="" type="text/css" rel="stylesheet" id="night-mode-pro-link" class="active-path" style="fill:#FFFFFF" data-old_color="#FBFDFD"/><g>
	<g>
		<path d="M231.326,99.302c-16.963,0-30.763,13.801-30.763,30.764c0,16.963,13.8,30.764,30.763,30.764    c16.963,0,30.764-13.801,30.764-30.764C262.09,113.103,248.289,99.302,231.326,99.302z M231.326,140.831    c-5.935,0-10.763-4.828-10.763-10.764c0-5.936,4.829-10.764,10.763-10.764c5.936,0,10.764,4.828,10.764,10.764    C242.09,136.003,237.262,140.831,231.326,140.831z" data-original="#000000" class="active-path" data-old_color="#FBFDFD" fill="#FDFDFD"/>
	</g>
</g><g>
	<g>
		<path d="M371.058,0H140.942c-24.399,0-44.249,19.85-44.249,44.248v423.504c0,24.398,19.85,44.248,44.249,44.248h230.115    c24.399,0,44.249-19.85,44.249-44.248l0.001,3.851V44.248C415.307,19.85,395.457,0,371.058,0z M116.693,44.248    c0-13.37,10.878-24.248,24.249-24.248h230.115c13.371,0,24.249,10.878,24.249,24.248v26.091H116.693V44.248z M116.693,256.168    h278.613V347H116.693V256.168z M133.89,236.168l55.045-63.739l39.948,46.258l-13.11,17.481H133.89z M307.062,193.366h-34.188    l7.072-9.43h60.84l39.173,52.231H240.773l17.101-22.801h49.188c5.522,0,10-4.478,10-10    C317.062,197.844,312.584,193.366,307.062,193.366z M294.945,163.937l15.42-20.56l15.42,20.56H294.945z M116.693,367h278.613    v54.661H116.693V367z M371.058,492H140.942c-13.371,0-24.249-10.878-24.249-24.248v-26.091h278.613v26.091h0.001    C395.307,481.122,384.429,492,371.058,492z M395.307,223.299l-41.521-55.363l-35.42-47.227c-1.889-2.518-4.853-4-8-4    c-3.147,0-6.111,1.482-8,4l-35.42,47.227l-25.779,34.373l-44.662-51.717c-1.899-2.199-4.662-3.464-7.568-3.464    s-5.669,1.265-7.568,3.464l-64.674,74.889V90.339h278.612V223.299z" data-original="#000000" class="active-path" data-old_color="#FBFDFD" fill="#FDFDFD"/>
	</g>
</g><g>
	<g>
		<path d="M326.889,43.22c-0.129-0.639-0.32-1.27-0.57-1.88c-0.25-0.6-0.56-1.18-0.92-1.72c-0.369-0.551-0.79-1.061-1.25-1.521    c-0.46-0.46-0.97-0.88-1.52-1.24c-0.54-0.369-1.12-0.67-1.72-0.92c-0.61-0.25-1.24-0.449-1.87-0.58c-1.29-0.25-2.62-0.25-3.91,0    c-0.64,0.131-1.271,0.33-1.87,0.58s-1.19,0.551-1.729,0.92c-0.551,0.36-1.061,0.78-1.521,1.24c-0.46,0.46-0.88,0.97-1.24,1.521    c-0.359,0.54-0.67,1.12-0.92,1.72c-0.25,0.61-0.439,1.24-0.569,1.88c-0.131,0.64-0.2,1.3-0.2,1.95c0,0.649,0.069,1.31,0.2,1.95    c0.13,0.64,0.319,1.27,0.569,1.87c0.25,0.609,0.561,1.189,0.92,1.729c0.36,0.55,0.78,1.061,1.24,1.521    c0.46,0.46,0.97,0.88,1.521,1.239c0.539,0.36,1.13,0.67,1.729,0.92s1.23,0.45,1.87,0.57c0.64,0.13,1.3,0.2,1.95,0.2    c0.649,0,1.31-0.07,1.96-0.2c0.63-0.12,1.26-0.32,1.87-0.57c0.6-0.25,1.18-0.56,1.72-0.92c0.55-0.359,1.06-0.779,1.52-1.239    c0.46-0.46,0.881-0.971,1.25-1.521c0.36-0.54,0.67-1.12,0.92-1.729c0.25-0.601,0.44-1.23,0.57-1.87    c0.13-0.641,0.19-1.301,0.19-1.95C327.079,44.52,327.018,43.859,326.889,43.22z" data-original="#000000" class="active-path" data-old_color="#FBFDFD" fill="#FDFDFD"/>
	</g>
</g><g>
	<g>
		<path d="M279.083,35.17h-84.167c-5.522,0-10,4.478-10,10c0,5.522,4.478,10,10,10h84.167c5.522,0,10-4.478,10-10    C289.083,39.648,284.605,35.17,279.083,35.17z" data-original="#000000" class="active-path" data-old_color="#FBFDFD" fill="#FDFDFD"/>
	</g>
</g><g>
	<g>
		<path d="M269.177,456.83h-26.355c-5.522,0-10,4.478-10,10c0,5.522,4.478,10,10,10h26.355c5.522,0,10-4.478,10-10    C279.177,461.308,274.699,456.83,269.177,456.83z" data-original="#000000" class="active-path" data-old_color="#FBFDFD" fill="#FDFDFD"/>
	</g>
</g><g>
	<g>
		<path d="M153.8,391.05c-0.129-0.639-0.32-1.271-0.57-1.87c-0.25-0.61-0.56-1.189-0.92-1.729c-0.37-0.551-0.79-1.061-1.25-1.521    c-0.46-0.46-0.97-0.88-1.52-1.24c-0.54-0.37-1.12-0.67-1.721-0.92c-0.609-0.25-1.239-0.45-1.869-0.58c-1.29-0.26-2.62-0.26-3.91,0    c-0.641,0.13-1.271,0.33-1.87,0.58c-0.61,0.25-1.19,0.55-1.73,0.92c-0.55,0.36-1.06,0.78-1.52,1.24    c-0.46,0.46-0.88,0.97-1.24,1.521c-0.36,0.54-0.67,1.119-0.92,1.729c-0.25,0.6-0.44,1.23-0.57,1.87    c-0.13,0.64-0.199,1.3-0.199,1.95c0,0.649,0.069,1.31,0.199,1.95c0.129,0.64,0.32,1.27,0.57,1.869c0.25,0.61,0.56,1.19,0.92,1.73    c0.36,0.55,0.78,1.06,1.24,1.52c0.46,0.46,0.97,0.881,1.52,1.24c0.54,0.37,1.12,0.67,1.73,0.92c0.6,0.25,1.229,0.45,1.87,0.58    c0.64,0.13,1.3,0.19,1.95,0.19c0.659,0,1.31-0.061,1.96-0.19c0.63-0.13,1.26-0.33,1.869-0.58c0.601-0.25,1.181-0.55,1.721-0.92    c0.55-0.359,1.06-0.78,1.52-1.24c0.46-0.46,0.88-0.97,1.25-1.52c0.36-0.54,0.67-1.12,0.92-1.73c0.25-0.6,0.44-1.229,0.57-1.869    c0.13-0.641,0.19-1.301,0.19-1.95C153.99,392.35,153.929,391.689,153.8,391.05z" data-original="#000000" class="active-path" data-old_color="#FBFDFD" fill="#FDFDFD"/>
	</g>
</g><g>
	<g>
		<path d="M233.333,383h-51.34c-5.522,0-10,4.478-10,10c0,5.522,4.478,10,10,10h51.34c5.522,0,10-4.478,10-10    C243.333,387.478,238.855,383,233.333,383z" data-original="#000000" class="active-path" data-old_color="#FBFDFD" fill="#FDFDFD"/>
	</g>
</g><g>
	<g>
		<path d="M368.007,383h-89.34c-5.522,0-10,4.478-10,10c0,5.522,4.478,10,10,10h89.34c5.522,0,10-4.478,10-10    C378.007,387.478,373.529,383,368.007,383z" data-original="#000000" class="active-path" data-old_color="#FBFDFD" fill="#FDFDFD"/>
	</g>
</g><g>
	<g>
		<path d="M368.556,267.142H316.11c-5.522,0-10,4.478-10,10v46.554c0,5.523,4.478,10,10,10h52.446c5.522,0,10-4.478,10-10v-46.554    C378.556,271.62,374.078,267.142,368.556,267.142z M358.556,313.697H326.11v-26.554h32.446V313.697z" data-original="#000000" class="active-path" data-old_color="#FBFDFD" fill="#FDFDFD"/>
	</g>
</g><g>
	<g>
		<path d="M282.222,267.142h-52.445c-5.522,0-10,4.478-10,10v46.554c0,5.522,4.478,10,10,10h52.445c5.522,0,10-4.478,10-10v-46.554    C292.222,271.62,287.744,267.142,282.222,267.142z M272.222,313.697h-32.445v-26.554h32.445V313.697z" data-original="#000000" class="active-path" data-old_color="#FBFDFD" fill="#FDFDFD"/>
	</g>
</g><g>
	<g>
		<path d="M195.89,267.143h-52.446c-5.522,0-10,4.478-10,10v46.554c0,5.522,4.478,10,10,10h52.446c5.522,0,10-4.478,10-10v-46.554    C205.89,271.62,201.412,267.143,195.89,267.143z M185.89,313.696h-32.446v-26.554h32.446V313.696z" data-original="#000000" class="active-path" data-old_color="#FBFDFD" fill="#FDFDFD"/>
	</g>
</g></g> </svg>
